<svg xmlns="http://www.w3.org/2000/svg" viewBox="0 0 800 450" width="100%" height="100%">
  <defs>
    <linearGradient id="bg-grad-5" x1="0%" y1="0%" x2="100%" y2="100%">
      <stop offset="0%" stop-color="#1c1917" />
      <stop offset="50%" stop-color="#2a2414" />
      <stop offset="100%" stop-color="#14110b" />
    </linearGradient>
  </defs>
  <rect width="800" height="450" fill="url(#bg-grad-5)" />

  <g opacity="0.08" stroke="#ffffff" stroke-width="1">
    <line x1="0" y1="90" x2="800" y2="90" />
    <line x1="0" y1="180" x2="800" y2="180" />
    <line x1="0" y1="270" x2="800" y2="270" />
    <line x1="0" y1="360" x2="800" y2="360" />
    <line x1="200" y1="0" x2="200" y2="450" />
    <line x1="400" y1="0" x2="400" y2="450" />
    <line x1="600" y1="0" x2="600" y2="450" />
  </g>

  <!-- Container -->
  <rect x="100" y="60" width="600" height="330" rx="16" fill="#1c1917" stroke="#eab308" stroke-width="2" stroke-opacity="0.35" />

  <!-- Top Bar -->
  <rect x="100" y="60" width="600" height="42" rx="16" fill="#292524" />
  <circle cx="130" cy="81" r="5" fill="#ef4444" />
  <circle cx="148" cy="81" r="5" fill="#f59e0b" />
  <circle cx="166" cy="81" r="5" fill="#10b981" />
  <text x="190" y="86" fill="#fde047" font-family="monospace" font-size="12">IT Project Management · WBS &amp; Gantt Planning · Risk Matrix</text>

  <!-- Gantt Chart Preview Area -->
  <g transform="translate(130, 120)">
    <rect x="0" y="0" width="540" height="160" rx="8" fill="#141210" stroke="#44403c" stroke-width="1" />
    
    <!-- Timeline Header -->
    <rect x="0" y="0" width="540" height="28" fill="#292524" rx="8 8 0 0" />
    <text x="15" y="19" fill="#e7e5e4" font-family="sans-serif" font-weight="bold" font-size="11">TACHES / JALONS DU PROJET</text>
    <text x="250" y="19" fill="#a8a29e" font-family="monospace" font-size="10">SEM 1</text>
    <text x="320" y="19" fill="#a8a29e" font-family="monospace" font-size="10">SEM 2</text>
    <text x="390" y="19" fill="#a8a29e" font-family="monospace" font-size="10">SEM 3</text>
    <text x="460" y="19" fill="#a8a29e" font-family="monospace" font-size="10">SEM 4</text>

    <!-- Task 1: Cadrage -->
    <text x="15" y="52" fill="#d6d3d1" font-family="sans-serif" font-size="11">1. Cadrage &amp; Expression des besoins</text>
    <rect x="240" y="40" width="90" height="16" rx="4" fill="#eab308" />
    
    <!-- Task 2: Cahier des charges -->
    <text x="15" y="82" fill="#d6d3d1" font-family="sans-serif" font-size="11">2. Rédaction du Cahier des Charges</text>
    <rect x="300" y="70" width="80" height="16" rx="4" fill="#f59e0b" />

    <!-- Task 3: Déploiement & Recette -->
    <text x="15" y="112" fill="#d6d3d1" font-family="sans-serif" font-size="11">3. Déploiement &amp; Tests de recette</text>
    <rect x="360" y="100" width="110" height="16" rx="4" fill="#10b981" />

    <!-- Task 4: Jalon Clôture -->
    <text x="15" y="142" fill="#d6d3d1" font-family="sans-serif" font-size="11">4. Revue de clôture &amp; Bilan IT</text>
    <polygon points="480,132 490,140 480,148 470,140" fill="#ec4899" />
    <text x="500" y="144" fill="#ec4899" font-family="monospace" font-size="10">JALON</text>
  </g>

  <!-- Bottom: Deliverables summary -->
  <g transform="translate(130, 295)">
    <rect x="0" y="0" width="540" height="80" rx="8" fill="#141210" stroke="#292524" stroke-width="1" />
    <text x="15" y="24" fill="#fde047" font-family="monospace" font-size="11">[METHODOLOGIE] Analyse de faisabilité, WBS, chemin critique &amp; RACI</text>
    <text x="15" y="44" fill="#f472b6" font-family="monospace" font-size="11">[PILOTAGE] Gestion des risques techniques et organisationnels</text>
    <text x="15" y="64" fill="#4ade80" font-family="monospace" font-size="11">Compétences validées : D4 Travailler en mode projet &amp; D6 Développement pro</text>
  </g>

  <text x="400" y="420" text-anchor="middle" fill="#a8a29e" font-family="sans-serif" font-size="12">Déposez votre capture dans /public/e5/5-chefferie-projet/preview.png</text>
</svg>
